# xmcd
#
# Track frame offsets:
# 182
# 13605
# 32520
# 50005
# 62885
# 77222
# 96075
# 109890
# 120600
# 133715
# 145752
# 164300
# 176212
# 190357
# 206550
# 220197
# 233505
# 246322
# 258277
# 272510
# 283507
# 296732
#
# Disc length: 4187 seconds
#
# Revision: 1
# Processed by: cddbd v1.5.1PL0 Copyright (c) Steve Scherf et al.
# Submitted via: CedeCatalogueitor 2.6.0.6 http://personales.ya.com/cdcatalogueitor
#
DISCID=4a105916
DTITLE=Dionne Warwick - This Girl Is In Love With Tou
DYEAR=1992
DGENRE=Compilation
TTITLE0=Promises Promises
TTITLE1=This Girl Is In Love With You
TTITLE2=Little Green Apples
TTITLE3=Where Is Love
TTITLE4=Who Is Gonna Love Me
TTITLE5=Where You Are, I Love You
TTITLE6=Where Am I Going
TTITLE7=Wanting Things
TTITLE8=Lonely In My Heart
TTITLE9=Yesterday I Heard The Rain
TTITLE10=Check Out Time
TTITLE11=Yesterday
TTITLE12=We've Only Just Begun
TTITLE13=Here's That Rainy Day
TTITLE14=The Green Grass Starts To Grow
TTITLE15=They Don't Give Medals To Yesterdays Heroes
TTITLE16=Walk The Way You Talk
TTITLE17=Make It Easy On Yourself
TTITLE18=Going Out Of My Head
TTITLE19=I Got Love
TTITLE20=Paper Mache
TTITLE21=Let Me Go To Him
EXTD=
EXTT0=
EXTT1=
EXTT2=
EXTT3=
EXTT4=
EXTT5=
EXTT6=
EXTT7=
EXTT8=
EXTT9=
EXTT10=
EXTT11=
EXTT12=
EXTT13=
EXTT14=
EXTT15=
EXTT16=
EXTT17=
EXTT18=
EXTT19=
EXTT20=
EXTT21=
PLAYORDER=
